<?xml version="1.0" encoding="UTF-8" standalone="no"?>
<!-- Created with Inkscape (http://www.inkscape.org/) -->

<svg
   xmlns:dc="http://purl.org/dc/elements/1.1/"
   xmlns:cc="http://creativecommons.org/ns#"
   xmlns:rdf="http://www.w3.org/1999/02/22-rdf-syntax-ns#"
   xmlns:svg="http://www.w3.org/2000/svg"
   xmlns="http://www.w3.org/2000/svg"
   xmlns:sodipodi="http://sodipodi.sourceforge.net/DTD/sodipodi-0.dtd"
   xmlns:inkscape="http://www.inkscape.org/namespaces/inkscape"
   width="1189mm"
   height="841mm"
   viewBox="0 0 4212.9922 2979.9213"
   id="svg4321"
   version="1.1"
   inkscape:version="0.91 r13725"
   sodipodi:docname="mhk logotype.svg"
   inkscape:export-filename="D:\alex\divers\my human kit\logo\second version\nouveaux\SVG Def\mhk logo homme.png"
   inkscape:export-xdpi="300"
   inkscape:export-ydpi="300">
  <defs
     id="defs4323" />
  <sodipodi:namedview
     id="base"
     pagecolor="#ffffff"
     bordercolor="#666666"
     borderopacity="1.0"
     inkscape:pageopacity="0.0"
     inkscape:pageshadow="2"
     inkscape:zoom="0.087500001"
     inkscape:cx="-1457.0624"
     inkscape:cy="456.00862"
     inkscape:document-units="px"
     inkscape:current-layer="layer1"
     showgrid="false"
     inkscape:window-width="1536"
     inkscape:window-height="812"
     inkscape:window-x="-8"
     inkscape:window-y="-8"
     inkscape:window-maximized="1"
     fit-margin-top="0"
     fit-margin-left="0"
     fit-margin-right="0"
     fit-margin-bottom="0" />
  <metadata
     id="metadata4326">
    <rdf:RDF>
      <cc:Work
         rdf:about="">
        <dc:format>image/svg+xml</dc:format>
        <dc:type
           rdf:resource="http://purl.org/dc/dcmitype/StillImage" />
        <dc:title />
      </cc:Work>
    </rdf:RDF>
  </metadata>
  <g
     inkscape:label="Calque 1"
     inkscape:groupmode="layer"
     id="layer1"
     transform="translate(-212.56645,1993.7005)">
    <g
       id="g4148"
       transform="matrix(11.34,0,0,11.34,-1972.1868,-10260.379)">
      <g
         id="text4334"
         style="color:#000000;font-style:normal;font-variant:normal;font-weight:normal;font-stretch:normal;font-size:165.70899963px;line-height:125%;font-family:Haettenschweiler;-inkscape-font-specification:Haettenschweiler;text-indent:0;text-align:start;text-decoration:none;text-decoration-line:none;letter-spacing:0;word-spacing:0;text-transform:none;direction:ltr;block-progression:tb;writing-mode:lr-tb;baseline-shift:baseline;text-anchor:start;display:inline;overflow:visible;visibility:visible;fill:#ff6b40;fill-opacity:1;fill-rule:nonzero;stroke:none;stroke-width:1.41700006;marker:none;enable-background:accumulate">
        <path
           id="path4182"
           style="font-style:normal;font-variant:normal;font-weight:normal;font-stretch:normal;font-size:248.56349182px;font-family:Haettenschweiler;-inkscape-font-specification:Haettenschweiler;fill:#ff6b40;fill-opacity:1;stroke:none"
           d="m 345.58676,908.56976 -34.10466,0 0,-97.70196 -19.9045,97.70196 -26.33705,0 -22.81735,-97.70196 0,97.70196 -29.85675,0 0,-174.04299 49.15441,0 17.47712,90.29846 15.17111,-90.29846 51.21767,0 0,174.04299 z"
           inkscape:connector-curvature="0" />
        <path
           id="path4184"
           style="font-style:normal;font-variant:normal;font-weight:normal;font-stretch:normal;font-size:248.56349182px;font-family:Haettenschweiler;-inkscape-font-specification:Haettenschweiler;fill:#ff6b40;fill-opacity:1;stroke:none"
           d="m 440.73997,908.56976 -38.2312,0 0,-83.50179 -10.68046,0 0,83.50179 -38.2312,0 0,-174.04299 38.2312,0 0,69.42301 10.68046,0 0,-69.42301 38.2312,0 0,174.04299 z"
           inkscape:connector-curvature="0" />
        <path
           id="path4186"
           style="font-style:normal;font-variant:normal;font-weight:normal;font-stretch:normal;font-size:248.56349182px;font-family:Haettenschweiler;-inkscape-font-specification:Haettenschweiler;fill:#ff6b40;fill-opacity:1;stroke:none"
           d="m 544.26764,908.56976 -41.99364,0 -14.68563,-64.56825 0,64.56825 -38.2312,0 0,-174.04299 38.2312,0 0,58.01433 16.7489,-58.01433 35.43972,0 -23.54556,79.37526 28.03621,94.66773 z"
           inkscape:connector-curvature="0" />
      </g>
      <path
         inkscape:connector-curvature="0"
         id="path4338"
         style="color:#000000;font-style:normal;font-variant:normal;font-weight:normal;font-stretch:normal;font-size:23px;line-height:125%;font-family:Haettenschweiler;-inkscape-font-specification:Haettenschweiler;text-indent:0;text-align:start;text-decoration:none;text-decoration-line:none;letter-spacing:0px;word-spacing:0;text-transform:none;direction:ltr;block-progression:tb;writing-mode:lr-tb;text-anchor:start;visibility:visible;fill:#3d6999;fill-opacity:1;fill-rule:nonzero;stroke:none;stroke-width:1.17999995;marker:none"
         d="m 255.82429,976.68351 -10.89456,0 0,-31.21042 -6.35837,31.21042 -8.41324,0 -7.28887,-31.21042 0,31.21042 -9.5376,0 0,-55.59702 15.70214,0 5.58294,28.8452 4.84631,-28.8452 16.36125,0 z" />
      <path
         inkscape:connector-curvature="0"
         id="path4340"
         style="color:#000000;font-style:normal;font-variant:normal;font-weight:normal;font-stretch:normal;font-size:23px;line-height:125%;font-family:Haettenschweiler;-inkscape-font-specification:Haettenschweiler;text-indent:0;text-align:start;text-decoration:none;text-decoration-line:none;letter-spacing:0px;word-spacing:0;text-transform:none;direction:ltr;block-progression:tb;writing-mode:lr-tb;text-anchor:start;visibility:visible;fill:#3d6999;fill-opacity:1;fill-rule:nonzero;stroke:none;stroke-width:1.17999995;marker:none"
         d="m 287.57741,931.67069 -8.56829,44.78002 c -0.87882,4.5752 -2.06131,7.3472 -3.54752,8.3163 -1.48618,0.9694 -3.54753,1.4539 -6.18393,1.4539 l -7.71532,0 0,-6.0481 c 2.89482,0 4.69125,-0.142 5.38904,-0.4263 0.69792,-0.2845 1.04682,-1.1244 1.04687,-2.5203 -5e-5,-1.3955 -1.58962,-8.6715 -4.76878,-21.82772 l -5.73807,-23.7278 11.04964,0 4.61369,23.8054 3.64442,-23.8054 z" />
      <path
         inkscape:connector-curvature="0"
         id="path4342"
         style="color:#000000;font-style:normal;font-variant:normal;font-weight:normal;font-stretch:normal;font-size:23px;line-height:125%;font-family:Haettenschweiler;-inkscape-font-specification:Haettenschweiler;text-indent:0;text-align:start;text-decoration:none;text-decoration-line:none;letter-spacing:0px;word-spacing:0;text-transform:none;direction:ltr;block-progression:tb;writing-mode:lr-tb;text-anchor:start;visibility:visible;fill:#3d6999;fill-opacity:1;fill-rule:nonzero;stroke:none;stroke-width:1.17999995;marker:none"
         d="m 331.03929,976.68351 -12.21277,0 0,-26.67402 -3.41182,0 0,26.67402 -12.21273,0 0,-55.59702 12.21273,0 0,22.1768 3.41182,0 0,-22.1768 12.21277,0 z" />
      <path
         inkscape:connector-curvature="0"
         id="path4344"
         style="color:#000000;font-style:normal;font-variant:normal;font-weight:normal;font-stretch:normal;font-size:23px;line-height:125%;font-family:Haettenschweiler;-inkscape-font-specification:Haettenschweiler;text-indent:0;text-align:start;text-decoration:none;text-decoration-line:none;letter-spacing:0px;word-spacing:0;text-transform:none;direction:ltr;block-progression:tb;writing-mode:lr-tb;text-anchor:start;visibility:visible;fill:#3d6999;fill-opacity:1;fill-rule:nonzero;stroke:none;stroke-width:1.17999995;marker:none"
         d="m 359.34182,976.68351 -11.01079,0 0,-1.5122 c -1.42164,1.4217 -3.69615,2.1325 -6.82364,2.1325 -2.17119,0 -4.05158,-0.5752 -5.64115,-1.7254 -1.58965,-1.15 -2.38442,-2.6556 -2.38442,-4.5169 l 0,-39.39082 11.01087,0 0,36.59972 c 0,1.3698 0.64616,2.0548 1.93853,2.0548 1.26652,0 1.89977,-0.6591 1.89981,-1.9775 l 0,-36.67702 11.01079,0 z" />
      <path
         inkscape:connector-curvature="0"
         id="path4346"
         style="color:#000000;font-style:normal;font-variant:normal;font-weight:normal;font-stretch:normal;font-size:23px;line-height:125%;font-family:Haettenschweiler;-inkscape-font-specification:Haettenschweiler;text-indent:0;text-align:start;text-decoration:none;text-decoration-line:none;letter-spacing:0px;word-spacing:0;text-transform:none;direction:ltr;block-progression:tb;writing-mode:lr-tb;text-anchor:start;visibility:visible;fill:#3d6999;fill-opacity:1;fill-rule:nonzero;stroke:none;stroke-width:1.17999995;marker:none"
         d="m 402.53225,976.68351 -11.0108,0 0,-35.97922 c -1e-4,-1.3699 -0.6333,-2.0547 -1.8998,-2.0547 -1.2924,0 -1.9385,0.6591 -1.9385,1.9773 l 0,36.05662 -11.0109,0 0,-36.05662 c 0,-1.37 -0.6333,-2.0549 -1.8997,-2.0549 -1.2924,0 -1.9386,0.6591 -1.9386,1.9774 l 0,36.13412 -11.01079,0 0,-45.01282 11.01079,0 0,1.5899 c 1.525,-1.2668 3.8124,-1.9 6.8624,-1.9 2.5588,0 4.8851,1.0212 6.9787,3.063 1.9386,-2.0418 4.5878,-3.063 7.948,-3.063 1.9127,0 3.7092,0.5752 5.3892,1.7253 1.6799,1.1503 2.52,2.7462 2.52,4.7883 z" />
      <path
         inkscape:connector-curvature="0"
         id="path4348"
         style="color:#000000;font-style:normal;font-variant:normal;font-weight:normal;font-stretch:normal;font-size:23px;line-height:125%;font-family:Haettenschweiler;-inkscape-font-specification:Haettenschweiler;text-indent:0;text-align:start;text-decoration:none;text-decoration-line:none;letter-spacing:0px;word-spacing:0;text-transform:none;direction:ltr;block-progression:tb;writing-mode:lr-tb;text-anchor:start;visibility:visible;fill:#3d6999;fill-opacity:1;fill-rule:nonzero;stroke:none;stroke-width:1.17999995;marker:none"
         d="m 431.22255,976.68351 -9.7702,0 0,-1.7447 c -0.8271,1.5767 -3.1923,2.365 -7.0951,2.365 -6.0222,0 -9.0333,-2.3521 -9.0333,-7.0562 l 0,-9.03352 c 0,-2.0161 0.7298,-3.7736 2.1903,-5.2729 1.4604,-1.4991 4.4008,-3.3731 8.8205,-5.6218 2.5589,-1.2924 3.8382,-2.3261 3.8382,-3.1016 l 0,-6.6684 c 0,-1.4734 -0.6333,-2.2097 -1.8997,-2.2097 -1.4474,0 -2.1715,1.7962 -2.1713,5.3889 -2e-4,0.646 0.039,1.6025 0.1174,2.8688 0.1023,1.2668 0.1545,2.2229 0.1545,2.8695 l -10.6617,0 0,-8.9952 c 0,-6.074 4.3939,-9.1111 13.1819,-9.1111 8.2193,0 12.3291,3.1665 12.3291,9.4989 z m -11.0496,-8.4131 0,-11.59252 c -2.533,0.6203 -3.7995,1.7576 -3.7995,3.4119 l 0,8.18062 c 0,1.3698 0.659,2.0548 1.9773,2.0548 1.2147,0 1.8222,-0.685 1.8222,-2.0548 z" />
      <path
         inkscape:connector-curvature="0"
         id="path4350"
         style="color:#000000;font-style:normal;font-variant:normal;font-weight:normal;font-stretch:normal;font-size:23px;line-height:125%;font-family:Haettenschweiler;-inkscape-font-specification:Haettenschweiler;text-indent:0;text-align:start;text-decoration:none;text-decoration-line:none;letter-spacing:0px;word-spacing:0;text-transform:none;direction:ltr;block-progression:tb;writing-mode:lr-tb;text-anchor:start;visibility:visible;fill:#3d6999;fill-opacity:1;fill-rule:nonzero;stroke:none;stroke-width:1.17999995;marker:none"
         d="m 459.71895,976.68351 -11.0495,0 0,-36.13412 c 0,-1.3698 -0.6334,-2.055 -1.8998,-2.055 -1.2666,0 -1.8998,0.6592 -1.8998,1.9773 l 0,36.21182 -11.0496,0 0,-45.01282 11.0496,0 0,1.5124 c 1.4734,-1.2149 3.7478,-1.8225 6.8237,-1.8225 1.9901,0 3.8254,0.5429 5.5053,1.6283 1.6802,1.0857 2.5201,2.6752 2.5201,4.7689 z" />
      <path
         inkscape:connector-curvature="0"
         id="path4352"
         style="color:#000000;font-style:normal;font-variant:normal;font-weight:normal;font-stretch:normal;font-size:23px;line-height:125%;font-family:Haettenschweiler;-inkscape-font-specification:Haettenschweiler;text-indent:0;text-align:start;text-decoration:none;text-decoration-line:none;letter-spacing:0px;word-spacing:0;text-transform:none;direction:ltr;block-progression:tb;writing-mode:lr-tb;text-anchor:start;visibility:visible;fill:#3d6999;fill-opacity:1;fill-rule:nonzero;stroke:none;stroke-width:1.17999995;marker:none"
         d="m 506.78635,976.68351 -13.4145,0 -4.6911,-20.62602 0,20.62602 -12.2129,0 0,-55.59702 12.2129,0 0,18.5324 5.3502,-18.5324 11.3212,0 -7.5217,25.3559 z" />
      <path
         style="color:#000000;font-style:normal;font-variant:normal;font-weight:normal;font-stretch:normal;font-size:23px;line-height:125%;font-family:Haettenschweiler;-inkscape-font-specification:Haettenschweiler;text-indent:0;text-align:start;text-decoration:none;text-decoration-line:none;letter-spacing:0px;word-spacing:0;text-transform:none;direction:ltr;block-progression:tb;writing-mode:lr-tb;text-anchor:start;visibility:visible;fill:#ff6b40;fill-opacity:1;fill-rule:nonzero;stroke:none;stroke-width:1.17999995;marker:none"
         d="m 519.30925,929.18949 -11.0495,0 0,-8.103 11.0495,0 z"
         id="path8083" />
      <path
         style="color:#000000;font-style:normal;font-variant:normal;font-weight:normal;font-stretch:normal;font-size:23px;line-height:125%;font-family:Haettenschweiler;-inkscape-font-specification:Haettenschweiler;text-indent:0;text-align:start;text-decoration:none;text-decoration-line:none;letter-spacing:0px;word-spacing:0;text-transform:none;direction:ltr;block-progression:tb;writing-mode:lr-tb;text-anchor:start;visibility:visible;fill:#3d6999;fill-opacity:1;fill-rule:nonzero;stroke:none;stroke-width:1.17999995;marker:none"
         d="m 519.30925,976.68351 -11.0495,0 0,-45.01282 11.0495,0 z"
         id="path4354" />
      <path
         inkscape:connector-curvature="0"
         id="path4356"
         style="color:#000000;font-style:normal;font-variant:normal;font-weight:normal;font-stretch:normal;font-size:23px;line-height:125%;font-family:Haettenschweiler;-inkscape-font-specification:Haettenschweiler;text-indent:0;text-align:start;text-decoration:none;text-decoration-line:none;letter-spacing:0px;word-spacing:0;text-transform:none;direction:ltr;block-progression:tb;writing-mode:lr-tb;text-anchor:start;visibility:visible;fill:#3d6999;fill-opacity:1;fill-rule:nonzero;stroke:none;stroke-width:1.17999995;marker:none"
         d="m 543.50215,976.68351 -6.9785,0 c -4.9886,0 -7.9738,-0.7495 -8.9561,-2.2487 -0.9823,-1.4992 -1.4733,-4.381 -1.4733,-8.6459 l 0,-27.44922 -4.9237,0 0,-6.669 4.9237,0 0,-9.0723 11.0496,0 0,9.0723 5.9707,0 0,6.669 -5.9707,0 0,27.37172 c 0,1.3182 0.3943,2.2036 1.1824,2.6558 0.7886,0.4524 2.5138,0.6785 5.1759,0.6785 z" />
    </g>
  </g>
</svg>
